<svg width="1024" height="1024" viewBox="0 0 1024 1024" fill="none" xmlns="http://www.w3.org/2000/svg">
<path d="M565.339 870.481H448.93C437.455 870.481 428.149 861.176 428.149 849.7V431.65C428.149 420.175 437.455 410.869 448.93 410.869H565.333C576.809 410.869 586.114 420.175 586.114 431.65V849.7C586.114 861.176 576.814 870.481 565.339 870.481Z" fill="#6873D7"/>
<path d="M591.27 501.267C590.089 513.083 588.116 524.796 585.599 536.474C584.216 542.29 582.625 548.065 580.292 553.765C579.048 556.601 577.821 559.465 575.136 562.156C574.419 562.81 573.539 563.47 572.341 563.863C570.894 564.297 570.316 564.147 569.413 564.234C567.741 564.367 565.981 564.135 564.309 563.759C557.295 562.191 552.388 556.682 549.205 551.416C545.866 546.046 543.609 540.369 541.399 534.825C539.188 529.368 537.325 523.558 534.588 519.264C533.91 518.292 533.164 517.331 532.551 516.961C531.926 516.584 531.688 516.561 531.15 516.613C529.808 516.949 527.944 518.691 525.439 520.797C523.054 522.747 520.797 524.825 518.089 526.451L514.177 529.032C512.794 529.79 511.33 530.45 509.906 531.156C504.201 533.806 497.511 535.716 490.74 534.535C483.999 533.511 478.044 529.842 473.565 525.352C469.005 520.861 465.637 515.566 462.865 510.126C459.971 504.698 458.183 498.854 455.602 493.923C453.021 489.022 449.451 484.08 444.555 483.026C443.513 482.772 441.749 482.783 440.18 482.448C438.606 482.135 437.061 481.655 435.632 480.961C432.75 479.618 430.256 477.61 428.271 475.243C424.272 470.521 422.316 464.335 422.704 458.403C423.097 464.323 425.678 469.936 429.683 473.952C431.697 475.949 434.092 477.517 436.679 478.443C437.964 478.929 439.312 479.213 440.655 479.352C442.003 479.525 443.242 479.334 445.122 479.537C448.6 479.994 451.598 481.967 453.855 484.207C456.169 486.464 457.992 489.039 459.578 491.695C462.772 497.112 464.757 502.598 467.743 507.476C470.648 512.406 473.982 517.047 477.946 520.797C481.91 524.536 486.655 527.157 491.707 527.776C496.759 528.563 502.042 527.111 506.926 524.767C508.142 524.142 509.386 523.581 510.589 522.91L514.067 520.554C516.457 519.119 518.546 517.129 520.734 515.329C522.846 513.83 525.114 510.89 529.611 509.658C532.007 509.108 534.825 509.831 536.613 511.168C538.471 512.482 539.478 513.992 540.479 515.427C543.997 521.243 545.658 526.874 547.759 532.418C549.767 537.927 551.792 543.366 554.587 548.152C557.353 552.909 560.935 557.081 565.675 558.406C566.849 558.736 568.076 558.991 569.349 558.95C571.016 558.962 570.819 559.078 571.797 558.377C573.429 556.977 574.934 554.408 576.143 551.902C578.608 546.763 580.454 541.161 582.19 535.56C585.825 524.351 588.492 512.8 591.27 501.267Z" fill="#252525"/>
<path d="M505.983 389.527C505.983 389.527 455.95 362.237 474.144 307.66C492.337 253.079 528.725 203.051 528.725 203.051C528.725 203.051 533.997 268.42 546.919 298.563C574.21 362.237 505.983 389.527 505.983 389.527Z" fill="#F5BE49"/>
<path d="M506.504 417.154C506.504 417.154 500.225 341.809 512.783 322.972" stroke="#6873D7" stroke-width="1.1664" stroke-miterlimit="10"/>
<path d="M434.926 451.059C437.426 454.445 439.214 457.124 441.465 459.207C442.53 460.301 443.727 461.215 445.128 462.089C446.511 463.032 448.131 463.733 449.995 464.873C448.12 465.845 445.938 466.238 443.803 465.816C441.627 465.532 439.567 464.381 437.952 462.853C434.781 459.699 433.456 455.075 434.926 451.059Z" fill="white"/>
<path d="M471.343 487.476C475.33 492.626 478.177 498.014 481.134 503.286C482.569 505.93 484.033 508.523 485.544 511.064C487.193 513.5 488.611 515.988 491.441 517.614C488.015 518.106 484.774 515.768 482.477 513.552C480.104 511.22 478.31 508.5 476.701 505.722C473.727 500.063 471.591 494.015 471.343 487.476Z" fill="white"/>
<path d="M549.199 503.801C552.573 509.964 554.656 516.307 556.751 522.609L559.714 532.018C560.241 533.552 560.738 535.108 561.387 536.555C562.052 537.996 562.642 539.506 564.268 540.218C562.376 540.675 560.6 539.182 559.355 537.984C558.082 536.659 557.029 535.195 556.132 533.679C554.298 530.652 553.042 527.412 551.937 524.159C549.934 517.586 548.679 510.826 549.199 503.801Z" fill="white"/>
<path d="M444.972 523.893C445.73 536.867 446.06 549.847 446.615 562.822L447.553 601.75C448.172 627.704 448.259 653.653 448.34 679.607C448.265 705.561 448.172 731.509 447.564 757.463L446.621 796.392C446.06 809.366 445.73 822.346 444.966 835.32C444.202 822.346 443.872 809.366 443.311 796.392L442.368 757.463C441.754 731.509 441.667 705.561 441.592 679.607C441.679 653.653 441.766 627.704 442.379 601.75L443.317 562.822C443.884 549.842 444.214 536.867 444.972 523.893Z" fill="#252525"/>
<path d="M457.529 523.893C458.287 536.867 458.617 549.847 459.173 562.822L460.11 601.75C460.73 627.704 460.816 653.653 460.897 679.607C460.822 705.561 460.729 731.509 460.122 757.463L459.179 796.392C458.617 809.366 458.287 822.346 457.523 835.32C456.76 822.346 456.43 809.366 455.869 796.392L454.925 757.463C454.312 731.509 454.225 705.561 454.15 679.607C454.237 653.653 454.323 627.704 454.937 601.75L455.874 562.822C456.441 549.842 456.771 536.867 457.529 523.893Z" fill="#252525"/>
<path d="M480.133 845.366C480.133 845.366 417.345 845.366 392.23 862.947C367.115 880.527 470.087 880.527 460.041 898.108C449.995 915.688 575.57 915.688 573.059 903.131C570.547 890.573 635.846 898.108 628.312 880.527C620.783 862.947 565.53 840.343 480.133 845.366Z" fill="#6873D7"/>
<path d="M436.181 860.435C429.955 860.655 424.417 860.916 418.925 861.992C416.182 862.455 413.48 863.121 410.76 863.954C407.999 864.718 405.337 865.817 402.276 866.714C405.812 861.506 411.778 858.138 418.022 857.015C421.159 856.471 424.376 856.39 427.484 856.963C430.58 857.49 433.635 858.532 436.181 860.435Z" fill="#252525"/>
<path d="M461.297 881.783C465.915 881.986 470.475 884.15 473.993 887.443C475.787 889.069 477.28 891.036 478.518 893.131C479.12 894.057 479.647 895.585 480.069 896.135C480.318 896.632 480.856 897.101 481.522 897.535C484.415 899.358 488.964 899.943 493.177 900.533L506.504 901.875C502.175 903.444 497.656 904.242 493.043 904.479C488.425 904.572 483.663 904.572 478.767 901.777C477.598 900.961 476.412 899.914 475.671 898.38C474.942 897.02 474.786 896.384 474.294 895.359C473.478 893.479 472.315 891.794 471.111 890.116C468.582 886.835 465.29 884.005 461.297 881.783Z" fill="#252525"/>
<path d="M563.018 894.341C563.441 892.107 564.766 890.244 566.317 888.739C567.874 887.194 569.783 886.094 571.78 885.249C575.836 883.785 580.385 883.537 584.366 885.55C582.381 886.644 580.547 887.304 578.77 888.004L573.608 889.972C570.2 891.285 567.029 892.599 563.018 894.341Z" fill="#252525"/>
<path d="M524.084 866.714C523.633 863.149 523.876 859.486 524.929 855.864C526.011 852.444 528.656 848.312 533.181 847.536C537.498 846.634 541.445 848.329 544.703 849.597C548.071 850.991 551.468 853.074 554.28 855.117C558.169 859.319 565.675 853.856 573.487 855.14C581.039 855.968 587.85 859.4 593.151 864.197C586.722 861.165 579.916 859.11 573.29 859.087C571.635 859.122 570.021 859.307 568.435 859.562L566.103 860.152L563.447 860.91C561.624 861.35 559.737 861.738 557.486 861.645C555.177 861.593 552.764 860.32 551.369 859.261C548.505 857.073 545.831 855.436 542.724 853.948C539.593 852.409 536.648 851.205 533.858 851.408C531.069 851.512 528.766 853.879 527.209 856.801C525.676 859.782 524.738 863.207 524.084 866.714Z" fill="#252525"/>
<path d="M511.527 451.054C605.154 451.054 681.054 375.154 681.054 281.527C681.054 187.9 605.154 112 511.527 112C417.9 112 342 187.9 342 281.527C342 375.154 417.9 451.054 511.527 451.054Z" stroke="white" stroke-width="1.1664" stroke-miterlimit="10"/>
</svg>
